<mxfile host="app.diagrams.net" agent="Mozilla/5.0 (Macintosh; Intel Mac OS X 10_15_7) AppleWebKit/537.36 (KHTML, like Gecko) Chrome/131.0.0.0 Safari/537.36" version="25.0.3">
  <diagram name="Page-1" id="6w3Nn8mPZokH5K6b7TAQ">
    <mxGraphModel dx="1150" dy="463" grid="1" gridSize="10" guides="1" tooltips="1" connect="1" arrows="1" fold="1" page="1" pageScale="1" pageWidth="827" pageHeight="1169" math="0" shadow="0">
      <root>
        <mxCell id="0" />
        <mxCell id="1" parent="0" />
        <mxCell id="OOeiIcqSMya32nPRaJqt-1" value="Control Plane" style="rounded=1;whiteSpace=wrap;html=1;fillColor=#dae8fc;strokeColor=#6c8ebf;verticalAlign=top;fontFamily=Verdana;arcSize=9;" parent="1" vertex="1">
          <mxGeometry x="210" y="340" width="390" height="90" as="geometry" />
        </mxCell>
        <mxCell id="OOeiIcqSMya32nPRaJqt-2" value="Node" style="rounded=1;whiteSpace=wrap;html=1;fillColor=#dae8fc;strokeColor=#6c8ebf;verticalAlign=top;arcSize=8;" parent="1" vertex="1">
          <mxGeometry x="210" y="440" width="90" height="210" as="geometry" />
        </mxCell>
        <mxCell id="OOeiIcqSMya32nPRaJqt-13" value="" style="aspect=fixed;sketch=0;html=1;dashed=0;whitespace=wrap;verticalLabelPosition=bottom;verticalAlign=top;fillColor=#2875E2;strokeColor=#ffffff;points=[[0.005,0.63,0],[0.1,0.2,0],[0.9,0.2,0],[0.5,0,0],[0.995,0.63,0],[0.72,0.99,0],[0.5,1,0],[0.28,0.99,0]];shape=mxgraph.kubernetes.icon2;prIcon=pod;rounded=1;" parent="1" vertex="1">
          <mxGeometry x="220" y="590" width="50" height="48" as="geometry" />
        </mxCell>
        <mxCell id="OOeiIcqSMya32nPRaJqt-14" value="Node" style="rounded=1;whiteSpace=wrap;html=1;fillColor=#dae8fc;strokeColor=#6c8ebf;verticalAlign=top;arcSize=8;" parent="1" vertex="1">
          <mxGeometry x="310" y="440" width="90" height="210" as="geometry" />
        </mxCell>
        <mxCell id="OOeiIcqSMya32nPRaJqt-18" value="Node" style="rounded=1;whiteSpace=wrap;html=1;fillColor=#dae8fc;strokeColor=#6c8ebf;verticalAlign=top;arcSize=7;" parent="1" vertex="1">
          <mxGeometry x="410" y="440" width="90" height="210" as="geometry" />
        </mxCell>
        <mxCell id="OOeiIcqSMya32nPRaJqt-22" value="Node" style="rounded=1;whiteSpace=wrap;html=1;fillColor=#dae8fc;strokeColor=#6c8ebf;verticalAlign=top;arcSize=9;" parent="1" vertex="1">
          <mxGeometry x="510" y="440" width="90" height="210" as="geometry" />
        </mxCell>
        <mxCell id="OOeiIcqSMya32nPRaJqt-27" value="" style="aspect=fixed;sketch=0;html=1;dashed=0;whitespace=wrap;verticalLabelPosition=bottom;verticalAlign=top;fillColor=#2875E2;strokeColor=#ffffff;points=[[0.005,0.63,0],[0.1,0.2,0],[0.9,0.2,0],[0.5,0,0],[0.995,0.63,0],[0.72,0.99,0],[0.5,1,0],[0.28,0.99,0]];shape=mxgraph.kubernetes.icon2;kubernetesLabel=1;prIcon=kubelet;rounded=1;" parent="1" vertex="1">
          <mxGeometry x="230" y="470" width="50" height="48" as="geometry" />
        </mxCell>
        <mxCell id="OOeiIcqSMya32nPRaJqt-28" value="" style="aspect=fixed;sketch=0;html=1;dashed=0;whitespace=wrap;verticalLabelPosition=bottom;verticalAlign=top;fillColor=#2875E2;strokeColor=#ffffff;points=[[0.005,0.63,0],[0.1,0.2,0],[0.9,0.2,0],[0.5,0,0],[0.995,0.63,0],[0.72,0.99,0],[0.5,1,0],[0.28,0.99,0]];shape=mxgraph.kubernetes.icon2;kubernetesLabel=1;prIcon=k_proxy;rounded=1;" parent="1" vertex="1">
          <mxGeometry x="230" y="530" width="50" height="48" as="geometry" />
        </mxCell>
        <mxCell id="OOeiIcqSMya32nPRaJqt-29" value="" style="aspect=fixed;sketch=0;html=1;dashed=0;whitespace=wrap;verticalLabelPosition=bottom;verticalAlign=top;fillColor=#2875E2;strokeColor=#ffffff;points=[[0.005,0.63,0],[0.1,0.2,0],[0.9,0.2,0],[0.5,0,0],[0.995,0.63,0],[0.72,0.99,0],[0.5,1,0],[0.28,0.99,0]];shape=mxgraph.kubernetes.icon2;kubernetesLabel=1;prIcon=api;rounded=1;" parent="1" vertex="1">
          <mxGeometry x="320" y="370" width="50" height="48" as="geometry" />
        </mxCell>
        <mxCell id="OOeiIcqSMya32nPRaJqt-30" value="" style="aspect=fixed;sketch=0;html=1;dashed=0;whitespace=wrap;verticalLabelPosition=bottom;verticalAlign=top;fillColor=#2875E2;strokeColor=#ffffff;points=[[0.005,0.63,0],[0.1,0.2,0],[0.9,0.2,0],[0.5,0,0],[0.995,0.63,0],[0.72,0.99,0],[0.5,1,0],[0.28,0.99,0]];shape=mxgraph.kubernetes.icon2;kubernetesLabel=1;prIcon=c_m;rounded=1;" parent="1" vertex="1">
          <mxGeometry x="380" y="370" width="50" height="48" as="geometry" />
        </mxCell>
        <mxCell id="OOeiIcqSMya32nPRaJqt-31" value="" style="aspect=fixed;sketch=0;html=1;dashed=0;whitespace=wrap;verticalLabelPosition=bottom;verticalAlign=top;fillColor=#2875E2;strokeColor=#ffffff;points=[[0.005,0.63,0],[0.1,0.2,0],[0.9,0.2,0],[0.5,0,0],[0.995,0.63,0],[0.72,0.99,0],[0.5,1,0],[0.28,0.99,0]];shape=mxgraph.kubernetes.icon2;kubernetesLabel=1;prIcon=sched;rounded=1;" parent="1" vertex="1">
          <mxGeometry x="440" y="370" width="50" height="48" as="geometry" />
        </mxCell>
        <mxCell id="OOeiIcqSMya32nPRaJqt-32" value="" style="aspect=fixed;sketch=0;html=1;dashed=0;whitespace=wrap;verticalLabelPosition=bottom;verticalAlign=top;fillColor=#2875E2;strokeColor=#ffffff;points=[[0.005,0.63,0],[0.1,0.2,0],[0.9,0.2,0],[0.5,0,0],[0.995,0.63,0],[0.72,0.99,0],[0.5,1,0],[0.28,0.99,0]];shape=mxgraph.kubernetes.icon2;prIcon=pod;rounded=1;" parent="1" vertex="1">
          <mxGeometry x="230" y="590" width="50" height="48" as="geometry" />
        </mxCell>
        <mxCell id="OOeiIcqSMya32nPRaJqt-33" value="" style="aspect=fixed;sketch=0;html=1;dashed=0;whitespace=wrap;verticalLabelPosition=bottom;verticalAlign=top;fillColor=#2875E2;strokeColor=#ffffff;points=[[0.005,0.63,0],[0.1,0.2,0],[0.9,0.2,0],[0.5,0,0],[0.995,0.63,0],[0.72,0.99,0],[0.5,1,0],[0.28,0.99,0]];shape=mxgraph.kubernetes.icon2;prIcon=pod;rounded=1;" parent="1" vertex="1">
          <mxGeometry x="240" y="590" width="50" height="48" as="geometry" />
        </mxCell>
        <mxCell id="OOeiIcqSMya32nPRaJqt-34" value="" style="aspect=fixed;sketch=0;html=1;dashed=0;whitespace=wrap;verticalLabelPosition=bottom;verticalAlign=top;fillColor=#2875E2;strokeColor=#ffffff;points=[[0.005,0.63,0],[0.1,0.2,0],[0.9,0.2,0],[0.5,0,0],[0.995,0.63,0],[0.72,0.99,0],[0.5,1,0],[0.28,0.99,0]];shape=mxgraph.kubernetes.icon2;prIcon=pod;rounded=1;" parent="1" vertex="1">
          <mxGeometry x="320" y="590" width="50" height="48" as="geometry" />
        </mxCell>
        <mxCell id="OOeiIcqSMya32nPRaJqt-35" value="" style="aspect=fixed;sketch=0;html=1;dashed=0;whitespace=wrap;verticalLabelPosition=bottom;verticalAlign=top;fillColor=#2875E2;strokeColor=#ffffff;points=[[0.005,0.63,0],[0.1,0.2,0],[0.9,0.2,0],[0.5,0,0],[0.995,0.63,0],[0.72,0.99,0],[0.5,1,0],[0.28,0.99,0]];shape=mxgraph.kubernetes.icon2;prIcon=pod;rounded=1;" parent="1" vertex="1">
          <mxGeometry x="330" y="590" width="50" height="48" as="geometry" />
        </mxCell>
        <mxCell id="OOeiIcqSMya32nPRaJqt-36" value="" style="aspect=fixed;sketch=0;html=1;dashed=0;whitespace=wrap;verticalLabelPosition=bottom;verticalAlign=top;fillColor=#2875E2;strokeColor=#ffffff;points=[[0.005,0.63,0],[0.1,0.2,0],[0.9,0.2,0],[0.5,0,0],[0.995,0.63,0],[0.72,0.99,0],[0.5,1,0],[0.28,0.99,0]];shape=mxgraph.kubernetes.icon2;prIcon=pod;rounded=1;" parent="1" vertex="1">
          <mxGeometry x="340" y="590" width="50" height="48" as="geometry" />
        </mxCell>
        <mxCell id="OOeiIcqSMya32nPRaJqt-37" value="" style="aspect=fixed;sketch=0;html=1;dashed=0;whitespace=wrap;verticalLabelPosition=bottom;verticalAlign=top;fillColor=#2875E2;strokeColor=#ffffff;points=[[0.005,0.63,0],[0.1,0.2,0],[0.9,0.2,0],[0.5,0,0],[0.995,0.63,0],[0.72,0.99,0],[0.5,1,0],[0.28,0.99,0]];shape=mxgraph.kubernetes.icon2;prIcon=pod;rounded=1;" parent="1" vertex="1">
          <mxGeometry x="420" y="590" width="50" height="48" as="geometry" />
        </mxCell>
        <mxCell id="OOeiIcqSMya32nPRaJqt-38" value="" style="aspect=fixed;sketch=0;html=1;dashed=0;whitespace=wrap;verticalLabelPosition=bottom;verticalAlign=top;fillColor=#2875E2;strokeColor=#ffffff;points=[[0.005,0.63,0],[0.1,0.2,0],[0.9,0.2,0],[0.5,0,0],[0.995,0.63,0],[0.72,0.99,0],[0.5,1,0],[0.28,0.99,0]];shape=mxgraph.kubernetes.icon2;prIcon=pod;rounded=1;" parent="1" vertex="1">
          <mxGeometry x="430" y="590" width="50" height="48" as="geometry" />
        </mxCell>
        <mxCell id="OOeiIcqSMya32nPRaJqt-39" value="" style="aspect=fixed;sketch=0;html=1;dashed=0;whitespace=wrap;verticalLabelPosition=bottom;verticalAlign=top;fillColor=#2875E2;strokeColor=#ffffff;points=[[0.005,0.63,0],[0.1,0.2,0],[0.9,0.2,0],[0.5,0,0],[0.995,0.63,0],[0.72,0.99,0],[0.5,1,0],[0.28,0.99,0]];shape=mxgraph.kubernetes.icon2;prIcon=pod;rounded=1;" parent="1" vertex="1">
          <mxGeometry x="440" y="590" width="50" height="48" as="geometry" />
        </mxCell>
        <mxCell id="OOeiIcqSMya32nPRaJqt-40" value="" style="aspect=fixed;sketch=0;html=1;dashed=0;whitespace=wrap;verticalLabelPosition=bottom;verticalAlign=top;fillColor=#2875E2;strokeColor=#ffffff;points=[[0.005,0.63,0],[0.1,0.2,0],[0.9,0.2,0],[0.5,0,0],[0.995,0.63,0],[0.72,0.99,0],[0.5,1,0],[0.28,0.99,0]];shape=mxgraph.kubernetes.icon2;prIcon=pod;rounded=1;" parent="1" vertex="1">
          <mxGeometry x="520" y="590" width="50" height="48" as="geometry" />
        </mxCell>
        <mxCell id="OOeiIcqSMya32nPRaJqt-41" value="" style="aspect=fixed;sketch=0;html=1;dashed=0;whitespace=wrap;verticalLabelPosition=bottom;verticalAlign=top;fillColor=#2875E2;strokeColor=#ffffff;points=[[0.005,0.63,0],[0.1,0.2,0],[0.9,0.2,0],[0.5,0,0],[0.995,0.63,0],[0.72,0.99,0],[0.5,1,0],[0.28,0.99,0]];shape=mxgraph.kubernetes.icon2;prIcon=pod;rounded=1;" parent="1" vertex="1">
          <mxGeometry x="530" y="590" width="50" height="48" as="geometry" />
        </mxCell>
        <mxCell id="OOeiIcqSMya32nPRaJqt-42" value="" style="aspect=fixed;sketch=0;html=1;dashed=0;whitespace=wrap;verticalLabelPosition=bottom;verticalAlign=top;fillColor=#2875E2;strokeColor=#ffffff;points=[[0.005,0.63,0],[0.1,0.2,0],[0.9,0.2,0],[0.5,0,0],[0.995,0.63,0],[0.72,0.99,0],[0.5,1,0],[0.28,0.99,0]];shape=mxgraph.kubernetes.icon2;prIcon=pod;rounded=1;" parent="1" vertex="1">
          <mxGeometry x="540" y="590" width="50" height="48" as="geometry" />
        </mxCell>
        <mxCell id="OOeiIcqSMya32nPRaJqt-43" value="" style="aspect=fixed;sketch=0;html=1;dashed=0;whitespace=wrap;verticalLabelPosition=bottom;verticalAlign=top;fillColor=#2875E2;strokeColor=#ffffff;points=[[0.005,0.63,0],[0.1,0.2,0],[0.9,0.2,0],[0.5,0,0],[0.995,0.63,0],[0.72,0.99,0],[0.5,1,0],[0.28,0.99,0]];shape=mxgraph.kubernetes.icon2;kubernetesLabel=1;prIcon=k_proxy;rounded=1;" parent="1" vertex="1">
          <mxGeometry x="330" y="530" width="50" height="48" as="geometry" />
        </mxCell>
        <mxCell id="OOeiIcqSMya32nPRaJqt-44" value="" style="aspect=fixed;sketch=0;html=1;dashed=0;whitespace=wrap;verticalLabelPosition=bottom;verticalAlign=top;fillColor=#2875E2;strokeColor=#ffffff;points=[[0.005,0.63,0],[0.1,0.2,0],[0.9,0.2,0],[0.5,0,0],[0.995,0.63,0],[0.72,0.99,0],[0.5,1,0],[0.28,0.99,0]];shape=mxgraph.kubernetes.icon2;kubernetesLabel=1;prIcon=k_proxy;rounded=1;" parent="1" vertex="1">
          <mxGeometry x="430" y="530" width="50" height="48" as="geometry" />
        </mxCell>
        <mxCell id="OOeiIcqSMya32nPRaJqt-45" value="" style="aspect=fixed;sketch=0;html=1;dashed=0;whitespace=wrap;verticalLabelPosition=bottom;verticalAlign=top;fillColor=#2875E2;strokeColor=#ffffff;points=[[0.005,0.63,0],[0.1,0.2,0],[0.9,0.2,0],[0.5,0,0],[0.995,0.63,0],[0.72,0.99,0],[0.5,1,0],[0.28,0.99,0]];shape=mxgraph.kubernetes.icon2;kubernetesLabel=1;prIcon=k_proxy;rounded=1;" parent="1" vertex="1">
          <mxGeometry x="530" y="530" width="50" height="48" as="geometry" />
        </mxCell>
        <mxCell id="OOeiIcqSMya32nPRaJqt-46" value="" style="aspect=fixed;sketch=0;html=1;dashed=0;whitespace=wrap;verticalLabelPosition=bottom;verticalAlign=top;fillColor=#2875E2;strokeColor=#ffffff;points=[[0.005,0.63,0],[0.1,0.2,0],[0.9,0.2,0],[0.5,0,0],[0.995,0.63,0],[0.72,0.99,0],[0.5,1,0],[0.28,0.99,0]];shape=mxgraph.kubernetes.icon2;kubernetesLabel=1;prIcon=kubelet;rounded=1;" parent="1" vertex="1">
          <mxGeometry x="330" y="470" width="50" height="48" as="geometry" />
        </mxCell>
        <mxCell id="OOeiIcqSMya32nPRaJqt-47" value="" style="aspect=fixed;sketch=0;html=1;dashed=0;whitespace=wrap;verticalLabelPosition=bottom;verticalAlign=top;fillColor=#2875E2;strokeColor=#ffffff;points=[[0.005,0.63,0],[0.1,0.2,0],[0.9,0.2,0],[0.5,0,0],[0.995,0.63,0],[0.72,0.99,0],[0.5,1,0],[0.28,0.99,0]];shape=mxgraph.kubernetes.icon2;kubernetesLabel=1;prIcon=kubelet;rounded=1;" parent="1" vertex="1">
          <mxGeometry x="430" y="470" width="50" height="48" as="geometry" />
        </mxCell>
        <mxCell id="OOeiIcqSMya32nPRaJqt-48" value="" style="aspect=fixed;sketch=0;html=1;dashed=0;whitespace=wrap;verticalLabelPosition=bottom;verticalAlign=top;fillColor=#2875E2;strokeColor=#ffffff;points=[[0.005,0.63,0],[0.1,0.2,0],[0.9,0.2,0],[0.5,0,0],[0.995,0.63,0],[0.72,0.99,0],[0.5,1,0],[0.28,0.99,0]];shape=mxgraph.kubernetes.icon2;kubernetesLabel=1;prIcon=kubelet;rounded=1;" parent="1" vertex="1">
          <mxGeometry x="530" y="470" width="50" height="48" as="geometry" />
        </mxCell>
        <mxCell id="FfEMjMh3a-kymr1CWgue-1" value="" style="aspect=fixed;sketch=0;html=1;dashed=0;whitespace=wrap;verticalLabelPosition=bottom;verticalAlign=top;fillColor=#2875E2;strokeColor=#ffffff;points=[[0.005,0.63,0],[0.1,0.2,0],[0.9,0.2,0],[0.5,0,0],[0.995,0.63,0],[0.72,0.99,0],[0.5,1,0],[0.28,0.99,0]];shape=mxgraph.kubernetes.icon2;kubernetesLabel=1;prIcon=etcd" vertex="1" parent="1">
          <mxGeometry x="220" y="370" width="50" height="48" as="geometry" />
        </mxCell>
        <mxCell id="FfEMjMh3a-kymr1CWgue-2" value="" style="endArrow=none;html=1;rounded=0;exitX=0.995;exitY=0.63;exitDx=0;exitDy=0;exitPerimeter=0;entryX=0.005;entryY=0.63;entryDx=0;entryDy=0;entryPerimeter=0;strokeWidth=1;startArrow=blockThin;startFill=1;strokeColor=#2875E2;" edge="1" parent="1" source="FfEMjMh3a-kymr1CWgue-1" target="OOeiIcqSMya32nPRaJqt-29">
          <mxGeometry width="50" height="50" relative="1" as="geometry">
            <mxPoint x="330" y="320" as="sourcePoint" />
            <mxPoint x="380" y="270" as="targetPoint" />
          </mxGeometry>
        </mxCell>
      </root>
    </mxGraphModel>
  </diagram>
</mxfile>
